# xmcd
#
# Track frame offsets: 
#        150
#        11593
#        24703
#        40423
#        53118
#        66725
#        78383
#        88348
#        98803
#        105998
#        117993
#        129183
#        142030
#        155075
#        167373
#        179345
#        194458
#        209970
#        221283
#        234928
#
# Disc length: 3309 seconds
#
# Revision: 2
# Processed by: cddbd v1.5.2PL0 Copyright (c) Steve Scherf et al.
# Submitted via: ExactAudioCopy v0.95b3
#
DISCID=1f0ceb14
DTITLE=Sonny Boy Williamson - One Way Out
DYEAR=1992
DGENRE=
TTITLE0=Born Blind
TTITLE1=Work With Me
TTITLE2=Your Killing Me (On My Feet)
TTITLE3=Keep it to Yourself
TTITLE4=Don't Lose Your Eye
TTITLE5=Good Evening Everybody
TTITLE6=Too Close Together
TTITLE7=Let Your Conscience Be Your Guide
TTITLE8=I Wonder Why
TTITLE9=This is My Apartment
TTITLE10=One Way Out
TTITLE11=Like Wolf
TTITLE12=Have You Ever Been in Love
TTITLE13=Cool Disposition
TTITLE14=I Know What Love is All About
TTITLE15=My Younger Days
TTITLE16=Decoration Day
TTITLE17=Your Funeral and My Trial
TTITLE18=Lonesome Cabin
TTITLE19=Wake Up Baby
EXTD=
EXTT0=
EXTT1=
EXTT2=
EXTT3=
EXTT4=
EXTT5=
EXTT6=
EXTT7=
EXTT8=
EXTT9=
EXTT10=
EXTT11=
EXTT12=
EXTT13=
EXTT14=
EXTT15=
EXTT16=
EXTT17=
EXTT18=
EXTT19=
PLAYORDER=
